PathFileType	4	(X/Y/Z)	./resultDataOpenSim/trcMotMarkerGrf/sub10/qtm-13-02.trc
DataRate	CameraRate	NumFrames	NumMarkers	Units	OrigDataRate	OrigDataStartFrame	OrigNumFrames
250.000000	250.000000	6	24	m	250.000000	410	468
Frame#	Time	L.Toe.Tip			R.Toe.Tip			L.Ankle.Lat			R.Ankle.Lat			L.Ankle.Med			R.Ankle.Med			L.Heel			R.Heel			L.Knee.Lat			R.Knee.Lat			L.Knee.Med			R.Knee.Med			L.Thigh.Upper			R.Thigh.Upper			L.ASIS			R.ASIS			V.Sacral			L.Acromium			R.Acromium			C7			L.Elbow			R.Elbow			L.Wrist.Lat			R.Wrist.Lat
		X1	Y1	Z1	X2	Y2	Z2	X3	Y3	Z3	X4	Y4	Z4	X5	Y5	Z5	X6	Y6	Z6	X7	Y7	Z7	X8	Y8	Z8	X9	Y9	Z9	X10	Y10	Z10	X11	Y11	Z11	X12	Y12	Z12	X13	Y13	Z13	X14	Y14	Z14	X15	Y15	Z15	X16	Y16	Z16	X17	Y17	Z17	X18	Y18	Z18	X19	Y19	Z19	X20	Y20	Z20	X21	Y21	Z21	X22	Y22	Z22	X23	Y23	Z23	X24	Y24	Z24

410	1.636	1.5768489	0.11445919	-0.22495348	0.8522224	0.037898887	0.02278169	1.4522577	0.090215254	-0.27176569	0.72146305	0.092322226	0.051669417	1.4458686	0.10691779	-0.18910294	0.75006919	0.10507447	-0.032760155	1.4036528	0.031297	-0.2421771	0.66621739	0.080443904	0.0053563591	1.325876	0.45958667	-0.25878199	0.9295875	0.43693508	0.067315736	1.3318071	0.42730657	-0.14233303	0.9623008	0.42569659	-0.056581437	1.1765699	0.81269206	-0.27929614	1.0230319	0.83832162	0.088129764	1.1983573	0.91758905	-0.19008421	1.1215534	0.92341494	0.051238753	0.97541775	0.91510023	-0.14414187	1.1113929	1.3900734	-0.2313116	1.1030917	1.3764609	0.082766559	1.0268683	1.4128764	-0.078998422	0.89651632	1.1324178	-0.3159453	1.0838969	1.0158393	0.16093637	0.9220859	0.89094635	-0.33106543	1.3283714	0.96764814	0.11005458
411	1.64	1.580757	0.11171923	-0.22613212	0.85254332	0.037928475	0.022847471	1.4557943	0.088425313	-0.27217355	0.72284024	0.094429857	0.052160687	1.4497349	0.10519313	-0.18931727	0.75146788	0.10670691	-0.032351188	1.4067262	0.029895459	-0.24226891	0.66738838	0.083338602	0.0059552233	1.3331557	0.45910785	-0.25914823	0.93451474	0.43670775	0.066869261	1.3411649	0.42730565	-0.14256447	0.96753957	0.42496398	-0.056938518	1.1834121	0.81259509	-0.28030753	1.0291277	0.83762321	0.086825638	1.2051682	0.9168348	-0.19052169	1.127846	0.92248546	0.050509215	0.9822314	0.91438367	-0.14545995	1.1169526	1.3894681	-0.23260345	1.1090186	1.3757626	0.081462902	1.0326683	1.4119826	-0.080254965	0.90198286	1.1318849	-0.31672808	1.0897444	1.0148575	0.15876709	0.92693847	0.89041213	-0.33226568	1.3341822	0.96729781	0.10747889
412	1.644	1.5845775	0.10878078	-0.22736561	0.85289887	0.037959402	0.022905937	1.4591313	0.086534129	-0.27256788	0.72434227	0.096615064	0.052649471	1.4533459	0.10343722	-0.18949538	0.75297737	0.10842478	-0.031920746	1.4095174	0.028456634	-0.24228697	0.66871773	0.086342357	0.0065179985	1.3403999	0.4585732	-0.25953332	0.93960779	0.43647808	0.066413609	1.3498817	0.4272681	-0.14283864	0.97288004	0.42424921	-0.057309349	1.1901609	0.81248426	-0.28133701	1.0354022	0.83695083	0.085535479	1.211997	0.91617917	-0.19104177	1.1343045	0.92158325	0.049703005	0.98901774	0.9137895	-0.14658691	1.1225766	1.3888872	-0.23393515	1.1149414	1.375117	0.080127787	1.0385096	1.4111193	-0.081557219	0.90757879	1.1313288	-0.31751869	1.0955015	1.0139576	0.15656253	0.93196002	0.88986183	-0.33351666	1.3398877	0.96682282	0.10498944
413	1.648	1.5881884	0.10573336	-0.22855346	0.85328422	0.037987549	0.022951339	1.4622348	0.084574851	-0.27286927	0.72597411	0.098876127	0.053138557	1.4567647	0.10167689	-0.18961798	0.75461717	0.11023657	-0.031484358	1.412062	0.0270049	-0.24220791	0.67019328	0.089453486	0.007051913	1.3476048	0.45796836	-0.25994253	0.94485966	0.43624394	0.065955781	1.3579274	0.42717461	-0.14316081	0.97833863	0.42355373	-0.057684971	1.1968166	0.81233261	-0.28238886	1.0417729	0.83628856	0.084243082	1.2188398	0.91561922	-0.19165562	1.140894	0.9207082	0.048833388	0.9957256	0.91329594	-0.14771407	1.1282654	1.3883289	-0.23530813	1.1208714	1.3745162	0.078762672	1.0443858	1.4102782	-0.082900574	0.91331683	1.1307407	-0.31832499	1.1011372	1.0131144	0.15435785	0.93715026	0.88929232	-0.33481032	1.34549	0.96621708	0.10258779
414	1.652	1.5914679	0.10265976	-0.22959374	0.85368933	0.038006949	0.02298231	1.4650891	0.082582628	-0.27302419	0.7277352	0.10122676	0.053640349	1.4600324	0.099923084	-0.18967606	0.75641989	0.11213736	-0.031073668	1.414377	0.025615631	-0.24201168	0.67179822	0.092685073	0.0075662247	1.354767	0.45727869	-0.26038974	0.9502536	0.4360052	0.06550576	1.3655373	0.42701837	-0.1435243	0.98392861	0.42287639	-0.058067095	1.2033836	0.81213031	-0.2834687	1.0481843	0.83562787	0.082941539	1.2257022	0.91514194	-0.19237588	1.1476058	0.91985469	0.047894068	1.0023481	0.91282475	-0.14919703	1.1340183	1.387791	-0.23672286	1.1268145	1.3739529	0.077370285	1.0502978	1.4094552	-0.084280512	0.91918673	1.130123	-0.31914797	1.1066434	1.0123041	0.15220029	0.94252242	0.8887006	-0.33614859	1.3509932	0.96547603	0.10027149
415	1.656	1.5944312	0.099600083	-0.23046939	0.85410735	0.038012855	0.023004036	1.4677441	0.080573843	-0.27304757	0.72960468	0.10368854	0.054165908	1.4631741	0.098161261	-0.18967006	0.75840289	0.11411391	-0.03070465	1.4164515	0.024410463	-0.24171604	0.67351015	0.096063989	0.0080803305	1.3618581	0.45649603	-0.26088232	0.95577993	0.43575976	0.065072957	1.3729014	0.42680153	-0.14392961	0.98965931	0.42221173	-0.058457524	1.2098805	0.81187876	-0.28458482	1.0546896	0.83495059	0.081656541	1.232597	0.91473069	-0.19321476	1.154458	0.91901628	0.046871487	1.0089713	0.91229992	-0.15117328	1.1398307	1.387269	-0.238178	1.1327736	1.3734212	0.07594723	1.056253	1.408651	-0.085698486	0.92515458	1.1294848	-0.31997513	1.1120525	1.011526	0.15009139	0.94808333	0.88808608	-0.33753691	1.3564046	0.96459778	0.098035324
